# xmcd
# 
# Track frame offsets:
#     150
#     62327
#     74020
#     84452
#     95815
#     111222
#     121852
#     137327
#     173435
#     191630
# 
# Disc length: 2816
# 
# Revision: 2
# Processed by: cddbd v1.5.2PL0 Copyright (c) Steve Scherf et al.
# Submitted via: fre:ac v1.1beta1pre3
# 
DISCID=820afe0a
DTITLE=Various Artist - Tom, Vinícius, Toquinho, Miúcha
DYEAR=1977
DGENRE=MPB
TTITLE0=Tom, Vinícius, Toquinho e Miúcha - Abertura: Estamos aí, Dia da Criação, Tarde em Itapuã, Gente Humilde
TTITLE1=Tom, Vinícius e Toquinho - Carta ao TomTom, Carta do Tom
TTITLE2=Tom - Corcovado
TTITLE3=Tom - Wave
TTITLE4=Tom e Miúcha - Pela Luz dos Olhos Teus
TTITLE5=Tom e Miúcha - Saia do Caminho
TTITLE6=Toquinho e Miúcha - Samba pra Vinicius, Vai Levando
TTITLE7=Tom, Vinícius, Toquinho e Miúcha - Agua de Beber, Garota de Ipanema, Sei Lá (A Vida Sempre Tem Razão)
TTITLE8=Vinícius e Miúcha - Minha Namorada
TTITLE9=Tom, Vinícius, Toquinho e Miúcha - Chega de Saudade, Se Todos Fossem Iguais a Você Final: Estamos Aí
EXTD=
EXTT0=
EXTT1=
EXTT2=
EXTT3=
EXTT4=
EXTT5=
EXTT6=
EXTT7=
EXTT8=
EXTT9=
PLAYORDER=
